PathFileType	4	(X/Y/Z)	/Users/itak/Documents/Research/Walk-IL/dataset/trc/00148_00007.trc
DataRate	CameraRate	NumFrames	NumMarkers	Units	OrigDataRate	OrigDataStartFrame	OrigNumFrames
100.000000	100.000000	4	54	mm	100.000000	410	547
Frame#	Time	RPSI			LPSI			L3			STRN			T10			C7			CLAV			RBAK			LBAK			LSHO			LUPA			LAEL			LAOL			LWTS			LWPS			LFRA			LIFD			LHPS			LHTS			RSHO			RUPA			RAEL			RAOL			RWTS			RWPS			RFRA			RIFD			RHTS			RHPS			RBHD			LFHD			RFHD			LBHD			LHIP			RHIP			RASI			LASI			LKNE			LTHI			LANK			LTIP			LTOE			LMT1			LMT5			LHEE			RKNE			RTHI			RANK			RTIP			RTOE			RMT1			RMT5			RHEE			*53			
		X1	Y1	Z1	X2	Y2	Z2	X3	Y3	Z3	X4	Y4	Z4	X5	Y5	Z5	X6	Y6	Z6	X7	Y7	Z7	X8	Y8	Z8	X9	Y9	Z9	X10	Y10	Z10	X11	Y11	Z11	X12	Y12	Z12	X13	Y13	Z13	X14	Y14	Z14	X15	Y15	Z15	X16	Y16	Z16	X17	Y17	Z17	X18	Y18	Z18	X19	Y19	Z19	X20	Y20	Z20	X21	Y21	Z21	X22	Y22	Z22	X23	Y23	Z23	X24	Y24	Z24	X25	Y25	Z25	X26	Y26	Z26	X27	Y27	Z27	X28	Y28	Z28	X29	Y29	Z29	X30	Y30	Z30	X31	Y31	Z31	X32	Y32	Z32	X33	Y33	Z33	X34	Y34	Z34	X35	Y35	Z35	X36	Y36	Z36	X37	Y37	Z37	X38	Y38	Z38	X39	Y39	Z39	X40	Y40	Z40	X41	Y41	Z41	X42	Y42	Z42	X43	Y43	Z43	X44	Y44	Z44	X45	Y45	Z45	X46	Y46	Z46	X47	Y47	Z47	X48	Y48	Z48	X49	Y49	Z49	X50	Y50	Z50	X51	Y51	Z51	X52	Y52	Z52	X53	Y53	Z53	X54	Y54	Z54	

411	4.1	231.1088256835938	1098.6171875	265.0661010742188	365.7593688964844	1099.9248046875	255.1189270019531	296.9278564453125	1132.681762695312	252.3064422607422	306.0221862792969	1337.66650390625	467.1629638671875	276.4057006835938	1280.283325195312	222.7841949462891	285.3470153808594	1574.8759765625	240.7759552001953	304.4465942382812	1470.946166992188	425.6568908691406	196.2827301025391	1388.074462890625	201.4091491699219	385.7828979492188	1556.47216796875	220.7010650634766	465.6638793945312	1546.454711914062	297.0166931152344	534.4889526367188	1416.841674804688	263.825927734375	566.787841796875	1200.103881835938	265.41552734375	495.1852722167969	1184.478393554688	215.2477874755859	562.4727172851562	943.2587890625	375.6972351074219	568.068359375	916.1885375976562	290.7449951171875	579.8885498046875	1084.038330078125	280.3273620605469	555.3230590820312	751.5632934570312	398.123779296875	578.7208862304688	842.3229370117188	320.1948852539062	579.9887084960938	855.5931396484375	388.473876953125	113.9081192016602	1555.6494140625	319.0544738769531	49.18138122558594	1480.122314453125	314.9022521972656	27.4969425201416	1184.407958984375	344.0562744140625	120.8129425048828	1180.904174804688	318.1336975097656	79.98231506347656	973.8906860351562	526.51171875	34.31654357910156	942.6139526367188	464.9074096679688	19.28015518188477	1116.06298828125	383.3869018554688	109.703010559082	788.2429809570312	585.2490234375	84.51566314697266	873.9744873046875	576.87158203125	42.72212982177734	852.6796264648438	521.3248291015625	214.8003692626953	1755.803466796875	303.0243225097656	373.2335815429688	1809.27099609375	448.236572265625	245.8359375	1814.291870117188	470.1759338378906	347.5014038085938	1756.0458984375	274.1383666992188	482.205322265625	1019.394714355469	353.4304504394531	120.4533996582031	1000.893432617188	394.3163146972656	174.0952911376953	1076.844970703125	476.4676513671875	438.9749450683594	1085.680053710938	457.5531005859375	463.7271423339844	549.2465209960938	542.8297729492188	491.4075012207031	677.1979370117188	467.5496826171875	483.5729675292969	37.11849594116211	590.4087524414062	500.9383850097656	288.2413024902344	528.4845581054688	406.0726928710938	58.00358581542969	809.044189453125	379.578125	51.03239822387695	730.23681640625	495.2879028320312	46.19586181640625	715.1170043945312	427.2994995117188	32.61197662353516	517.127197265625	189.8658599853516	506.92138671875	348.6817016601562	145.8767700195312	784.839599609375	400.4557189941406	222.2623443603516	58.34032821655273	66.52650451660156	184.1741485595703	383.7269897460938	276.2235412597656	298.41357421875	38.54427719116211	291.0888977050781	330.8620910644531	40.34552383422852	223.3709106445312	215.2707214355469	37.87424087524414	202.6390533447266	264.4491271972656	79.76145935058594	6.783296585083008	nan	nan	nan	
412	4.11	234.3274841308594	1099.26318359375	272.1539916992188	369.077880859375	1101.286865234375	263.5820922851562	300.3627014160156	1133.624145507812	259.998779296875	307.5951232910156	1339.005249023438	474.5222473144531	280.5812377929688	1281.21435546875	229.8433227539062	289.9597778320312	1575.795043945312	247.1723327636719	306.6828308105469	1472.21044921875	432.6188354492188	200.9547119140625	1389.015014648438	207.3056640625	390.5624694824219	1557.187255859375	228.3217010498047	469.5335388183594	1547.205322265625	305.5937194824219	538.6713256835938	1417.517578125	273.5669250488281	570.95703125	1200.818359375	276.1893310546875	499.9443054199219	1185.095703125	225.2217407226562	565.4743041992188	943.6828002929688	385.9135437011719	572.03173828125	916.8595581054688	300.9354248046875	583.927490234375	1084.756469726562	291.1251220703125	558.1492919921875	751.8812866210938	407.5526428222656	582.363037109375	842.9243774414062	330.2919006347656	582.8473510742188	855.9530029296875	398.6087341308594	117.5758895874023	1557.021362304688	323.5434875488281	52.75984191894531	1481.545288085938	318.6056213378906	31.00798225402832	1185.891479492188	346.4411926269531	124.7828979492188	1182.51513671875	322.2299194335938	79.83252716064453	972.8750610351562	527.1979370117188	34.84979248046875	942.7156372070312	464.209228515625	22.10410308837891	1117.21484375	384.9385986328125	107.5461807250977	786.1795043945312	583.6876831054688	82.90493774414062	872.1929321289062	576.1371459960938	41.96337890625	851.9278564453125	519.4573974609375	218.8191375732422	1756.949462890625	308.5115051269531	376.1618957519531	1810.482543945312	454.83935546875	248.636962890625	1815.63427734375	475.7674255371094	351.6891479492188	1757.03955078125	280.589111328125	484.8665161132812	1021.283264160156	362.7438659667969	122.7058258056641	1001.270263671875	400.4649658203125	175.7261047363281	1077.750610351562	483.0831909179688	440.671875	1087.246826171875	466.5624389648438	465.1782531738281	549.9696655273438	549.249755859375	493.1693420410156	678.5927124023438	475.5009765625	484.2892761230469	36.67086029052734	591.3145141601562	502.9024658203125	288.7483825683594	533.3135375976562	405.8646545410156	54.24517059326172	810.4401245117188	379.654541015625	49.21749496459961	731.1805419921875	495.6585693359375	44.31464385986328	716.3950805664062	428.3565063476562	33.49655914306641	517.7094116210938	190.9647369384766	506.7197570800781	358.2716064453125	147.8632965087891	785.1926879882812	407.9958801269531	222.1331024169922	62.44451522827148	68.01425170898438	184.9402313232422	384.6924133300781	283.5226135253906	298.4441833496094	38.42764663696289	291.3805541992188	330.7877502441406	40.98960494995117	223.9030609130859	215.3556213378906	38.15495300292969	203.2714233398438	264.4617309570312	85.73423004150391	8.921648025512695	nan	nan	nan	
413	4.12	237.5333709716797	1100.036499023438	279.1632385253906	372.358642578125	1102.7998046875	271.9288635253906	303.7678833007812	1134.751953125	267.576416015625	309.1400451660156	1340.4921875	481.8356018066406	284.6741027832031	1282.339111328125	236.8890533447266	294.5305480957031	1576.890014648438	253.6003112792969	308.8948364257812	1473.630981445312	439.5845642089844	205.5231781005859	1390.136352539062	213.2711486816406	395.2643432617188	1558.077514648438	235.9845581054688	473.3209838867188	1548.150756835938	314.2024536132812	542.7828369140625	1418.40869140625	283.3492736816406	575.0400390625	1201.75	287.0045471191406	504.6338195800781	1185.928100585938	235.2349700927734	568.3968505859375	944.2999267578125	396.12890625	575.941162109375	917.7493896484375	311.1327209472656	587.8909301757812	1085.691772460938	301.9678955078125	560.7842407226562	752.3538208007812	416.8978271484375	585.9583740234375	843.7360229492188	340.3775329589844	585.639892578125	856.5016479492188	408.7254333496094	121.2391128540039	1558.593139648438	328.1234436035156	56.36251068115234	1483.19140625	322.4337768554688	34.52130126953125	1187.609252929688	348.76904296875	128.7243194580078	1184.37158203125	326.3084106445312	79.66440582275391	972.1281127929688	527.7684936523438	35.5115966796875	943.0739135742188	463.4087524414062	24.9503002166748	1118.602294921875	386.4004211425781	105.5260162353516	784.4105224609375	581.9260864257812	81.32560729980469	870.6829223632812	575.2215576171875	41.4349479675293	851.4190673828125	517.440673828125	222.8204193115234	1758.237670898438	314.0017395019531	379.1076965332031	1811.846801757812	461.3987121582031	251.4684600830078	1817.175659179688	481.331787109375	355.85791015625	1758.12646484375	287.0352172851562	487.5047607421875	1023.3310546875	371.9170227050781	125.1500091552734	1001.742614746094	406.6593627929688	177.3905181884766	1078.791625976562	489.6538391113281	442.3474731445312	1088.974487304688	475.426025390625	466.9098815917969	550.7706909179688	555.4497680664062	495.2278747558594	680.1402587890625	483.2514038085938	485.0436096191406	36.19947052001953	591.9761962890625	505.0246276855469	289.3093872070312	537.7423706054688	406.1033020019531	51.54253768920898	811.4678344726562	380.0108337402344	48.20125961303711	731.8767700195312	496.26953125	42.8312873840332	717.3359985351562	429.3876647949219	34.15085983276367	518.1619262695312	191.8761596679688	506.6383972167969	368.5260009765625	149.7882995605469	785.7178955078125	415.7195434570312	221.8510437011719	66.99785614013672	69.86457824707031	185.5670013427734	385.8287048339844	291.5135498046875	298.4131774902344	38.3260383605957	291.6810913085938	330.6977844238281	41.70407867431641	224.5168914794922	215.1344757080078	38.55265808105469	203.9131927490234	264.2769775390625	92.33152008056641	11.56347370147705	nan	nan	nan	
414	4.13	240.7487335205078	1100.89599609375	286.0677795410156	375.624755859375	1104.404907226562	280.1466674804688	307.1646728515625	1136.017456054688	275.0225830078125	310.6626892089844	1342.074462890625	489.0906982421875	288.702880859375	1283.612915039062	243.8867797851562	299.0537109375	1578.121704101562	260.0596313476562	311.0903930664062	1475.15087890625	446.5469665527344	210	1391.400512695312	219.2848815917969	399.8856201171875	1559.104248046875	243.6872711181641	477.0151977539062	1549.25	322.8372497558594	546.81982421875	1419.47265625	293.1572570800781	579.0408935546875	1202.853759765625	297.8244934082031	509.2592163085938	1186.934692382812	245.2551574707031	571.239990234375	945.0911865234375	406.3526916503906	579.7977294921875	918.8185424804688	321.3524475097656	591.7825317382812	1086.799926757812	312.8328857421875	563.23681640625	752.9775390625	426.2315979003906	589.5025024414062	844.7218627929688	350.4866638183594	588.3642578125	857.224609375	418.8555297851562	124.889762878418	1560.307373046875	332.7977905273438	59.98258590698242	1485.00341796875	326.3801879882812	38.00840759277344	1189.50244140625	351.0536804199219	132.6029663085938	1186.39404296875	330.351806640625	79.48757171630859	971.6296997070312	528.25	36.28761291503906	943.6514282226562	462.5392456054688	27.76455307006836	1120.171142578125	387.7789611816406	103.6927337646484	782.9347534179688	580.035400390625	79.8199462890625	869.434326171875	574.177490234375	41.11945724487305	851.1370239257812	515.3256225585938	226.7954711914062	1759.62109375	319.49169921875	382.0618896484375	1813.324951171875	467.9091796875	254.3202972412109	1818.878173828125	486.8693542480469	359.9987182617188	1759.260498046875	293.4736022949219	490.1315307617188	1025.467407226562	380.9608764648438	127.799560546875	1002.272521972656	412.8558959960938	179.0675659179688	1079.916748046875	496.1319274902344	444.0010070800781	1090.796630859375	484.1395874023438	468.8694152832031	551.5575561523438	561.346923828125	497.5204162597656	681.745849609375	490.7201232910156	485.7718200683594	35.71814346313477	592.4367065429688	507.1900939941406	289.8781127929688	541.705078125	406.5372314453125	49.70768737792969	812.1636352539062	380.4662170410156	47.77884674072266	732.3340454101562	496.95068359375	41.69867706298828	718.0119018554688	430.3603515625	34.59574890136719	518.4839477539062	192.5890960693359	506.6783752441406	379.4078979492188	151.6404571533203	786.3989868164062	423.5955200195312	221.4295196533203	71.97450256347656	72.12216949462891	186.0506134033203	387.1187438964844	300.20556640625	298.3182373046875	38.23587417602539	291.9973754882812	330.6175231933594	42.48416900634766	225.2403411865234	214.6718139648438	39.04973602294922	204.5903472900391	263.9032592773438	99.50807189941406	14.78244495391846	nan	nan	nan	
